
<svg xmlns="http://www.w3.org/2000/svg" version="1.1" width="1280" height="300">
<path d="M0 0 C4.05070117 1.31356102 7.68801895 2.76141535 11.4296875 4.80078125 C12.97487061 5.63814819 12.97487061 5.63814819 14.55126953 6.49243164 C15.64810059 7.0930542 16.74493164 7.69367676 17.875 8.3125 C19.62784297 9.2645873 21.38068726 10.21667218 23.13363647 11.16856384 C24.92790134 12.14390083 26.72094617 13.12144659 28.51367188 14.09960938 C32.73177225 16.39888762 36.95675725 18.68527624 41.18237305 20.97070312 C47.16956618 24.2094403 53.15275149 27.45557936 59.13623047 30.70117188 C60.18311035 31.26900391 61.22999023 31.83683594 62.30859375 32.421875 C63.3457251 32.98672607 64.38285645 33.55157715 65.45141602 34.13354492 C67.50735619 35.24307177 69.57162035 36.33732572 71.64428711 37.4152832 C76.01765623 39.70630083 80.06859012 41.89198404 83.8203125 45.12109375 C87.29741268 47.95821241 90.37259863 50.17691606 95 50 C104.15111535 47.12154018 112.41701929 41.93529602 120.59667969 37.02197266 C124.93859063 34.44236674 129.38183237 32.11390242 133.875 29.8125 C135.36301847 29.0293152 136.84999424 28.24414624 138.3359375 27.45703125 C144.68304791 24.10800517 151.04975694 20.7964959 157.41503906 17.48217773 C162.12009983 15.03066457 166.82008166 12.57045169 171.5078125 10.0859375 C172.37212891 9.62832031 173.23644531 9.17070313 174.12695312 8.69921875 C175.74399517 7.84202211 177.35995506 6.9827796 178.97460938 6.12109375 C179.69712891 5.73824219 180.41964844 5.35539062 181.1640625 4.9609375 C181.78748535 4.62884277 182.4109082 4.29674805 183.05322266 3.95458984 C187.09646784 1.97201038 190.44579133 0.7526543 194.97906494 0.66287231 C195.95848053 0.63963394 196.93789612 0.61639557 197.94699097 0.592453 C199.01152496 0.57757339 200.07605896 0.56269379 201.17285156 0.54736328 C202.3043161 0.52469894 203.43578064 0.50203461 204.60153198 0.47868347 C215.19110472 0.2858393 225.7834043 0.21882164 236.3746376 0.19064522 C243.45180143 0.17029932 250.52409811 0.11410883 257.59960938 -0.04589844 C294.32512682 -0.85304556 324.37484637 2.82167821 357.87994385 19.51927185 C365.16012178 23.11452886 372.69918917 26.06158428 380.25598717 29.01708984 C383.92471862 30.45986933 387.57490803 31.94824597 391.2265625 33.43359375 C392.66698266 34.01808989 394.10741123 34.6025653 395.54785156 35.18701172 C408.38557472 40.40812438 421.19173411 45.70713437 434 51 C434 51.66 434 52.32 434 53 C409.8356771 63.11381984 385.59934836 73.0276454 361.25244141 82.69433594 C360.33114724 83.06144149 359.40985308 83.42854704 358.46064091 83.806777 C356.4843999 84.59159415 354.50612482 85.37132624 352.52505016 86.14386082 C347.08577535 88.28491813 341.7604387 90.55260691 336.48600769 93.07426453 C320.1653629 100.69554 306.69750847 103.65445588 288.45677376 103.08717346 C284.46066957 102.96454634 280.47008092 102.92103869 276.47251892 102.89831543 C268.00089877 102.8373559 259.5324228 102.67471062 251.0625 102.5 C241.88159508 102.31101935 232.70248208 102.14231624 223.51962656 102.08994913 C218.9453767 102.05989426 214.3793367 101.93728029 209.80690002 101.79577637 C193.61418773 101.53205054 182.78551711 104.59237959 169.27089882 113.54158115 C165.88405774 115.71668152 162.33557097 117.52313247 158.73828125 119.3203125 C157.49476494 119.95773653 156.25169214 120.59602735 155.00927734 121.2355957 C154.40508972 121.54437653 153.8009021 121.85315735 153.17840576 122.17129517 C149.88544421 123.85439911 146.59742349 125.54712218 143.30859375 127.23828125 C142.66915833 127.56678574 142.0297229 127.89529022 141.37091064 128.23374939 C136.18983533 130.8970919 131.02727202 133.59395612 125.875 136.3125 C125.15199707 136.69140381 124.42899414 137.07030762 123.68408203 137.46069336 C119.5623962 139.6252964 115.47122707 141.83763249 111.39453125 144.0859375 C110.44400879 144.60244873 109.49348633 145.11895996 108.51416016 145.65112305 C106.67707713 146.64963431 104.84683188 147.66086722 103.02490234 148.68676758 C101.78087646 149.35808716 101.78087646 149.35808716 100.51171875 150.04296875 C99.42056763 150.64661255 99.42056763 150.64661255 98.30737305 151.26245117 C93.99720337 152.64019137 90.73640611 151.33416517 86.73046875 149.51635742 C85.54477977 148.88818567 84.36399318 148.25069888 83.1875 147.60546875 C82.54550659 147.26218033 81.90351318 146.91889191 81.24206543 146.56520081 C79.1568477 145.44749939 77.07845199 144.31772527 75 143.1875 C73.54920115 142.4065332 72.09802589 141.62626527 70.64648438 140.84667969 C66.42479164 138.57581356 62.2116552 136.28941325 58 134 C56.92363281 133.41621582 55.84726563 132.83243164 54.73828125 132.23095703 C50.25908513 129.8001922 45.78519102 127.36000564 41.31640625 124.91015625 C35.36747257 121.64949989 29.40325251 118.41725726 23.4375 115.1875 C21.92349609 114.3677771 21.92349609 114.3677771 20.37890625 113.53149414 C13.25796633 109.67766318 6.13225339 105.83284955 -1 102 C-1.10574778 81.79923637 -0.80257182 61.60285867 -0.53643799 41.40441895 C-0.47507872 36.72405302 -0.4153507 32.04366627 -0.35546875 27.36328125 C-0.23853898 18.2421669 -0.1198557 9.12107634 0 0 Z " fill="#11219F" transform="translate(85,38)"/>
<path d="M0 0 C10.89 0 21.78 0 33 0 C33 17.82 33 35.64 33 54 C42.24 54 51.48 54 61 54 C61.495 60.435 61.495 60.435 62 67 C62.4125 65.78755615 62.825 64.5751123 63.25 63.32592773 C77.74759688 20.72115179 77.74759688 20.72115179 85 0 C100.51 0 116.02 0 132 0 C133.39734375 4.05925781 134.7946875 8.11851562 136.234375 12.30078125 C137.35903316 15.56615676 138.48388117 18.83146674 139.6088562 22.09673309 C140.79083384 25.52761794 141.97248779 28.95861343 143.15332031 32.38989258 C144.29366534 35.70347996 145.43495081 39.01674213 146.57685089 42.32979393 C147.21770101 44.18988439 147.85761186 46.05029837 148.49749756 47.91072083 C150.67861701 54.23621428 152.91119818 60.53135535 155.2925415 66.78459167 C156 69 156 69 156 72 C145.44 72 134.88 72 124 72 C120 62 120 62 120 60 C112.41 60 104.82 60 97 60 C96.34 62.97 95.68 65.94 95 69 C94.505 70.485 94.505 70.485 94 72 C62.98 72 31.96 72 0 72 C0 48.24 0 24.48 0 0 Z M108 27 C106.35 32.28 104.7 37.56 103 43 C106.63 43 110.26 43 114 43 C112.35 37.72 110.7 32.44 109 27 C108.67 27 108.34 27 108 27 Z " fill="#0F1F4B" transform="translate(278,228)"/>
<path d="M0 0 C32 0 32 0 39.875 6.4375 C41.31461146 8.58303026 42.70978422 10.76144589 44 13 C44.66 13.33 45.32 13.66 46 14 C46.66 12.68 47.32 11.36 48 10 C50.97 6.7 53.94 3.4 57 0 C67.56 0 78.12 0 89 0 C89 23.76 89 47.52 89 72 C78.11 72 67.22 72 56 72 C55.67 61.11 55.34 50.22 55 39 C52.03 42.63 49.06 46.26 46 50 C42 48 42 48 34 39 C33.67 49.89 33.34 60.78 33 72 C22.11 72 11.22 72 0 72 C0 48.24 0 24.48 0 0 Z " fill="#10204B" transform="translate(801,228)"/>
<path d="M0 0 C7.59 0 15.18 0 23 0 C28.38642565 6.92540441 33.21459417 13.69595953 38 21 C38.33 14.07 38.66 7.14 39 0 C49.89 0 60.78 0 72 0 C72 23.76 72 47.52 72 72 C63.42 72 54.84 72 46 72 C40.83454646 66.63394633 38.7820686 64.30648469 36 58 C35.01 56.35 34.02 54.7 33 53 C32.67 59.27 32.34 65.54 32 72 C21.44 72 10.88 72 0 72 C0 48.24 0 24.48 0 0 Z " fill="#101F4B" transform="translate(972,228)"/>
<path d="M0 0 C1.98684692 -0.36076355 1.98684692 -0.36076355 4.44970703 -0.34057617 C5.37051056 -0.34034958 6.29131409 -0.34012299 7.24002075 -0.33988953 C8.73382767 -0.31666374 8.73382767 -0.31666374 10.2578125 -0.29296875 C11.27600067 -0.28872391 12.29418884 -0.28447906 13.3432312 -0.28010559 C16.60408673 -0.26327579 19.86433041 -0.22561546 23.125 -0.1875 C25.33202234 -0.17245874 27.53905434 -0.15876937 29.74609375 -0.14648438 C35.16427223 -0.1133583 40.58209242 -0.06311653 46 0 C46.22693039 0.65795563 46.45386078 1.31591125 46.68766785 1.99380493 C48.84862583 8.25878445 51.01032584 14.52350741 53.17281628 20.78795815 C54.28398188 24.00694002 55.39488129 27.2260132 56.50512695 30.4453125 C57.78786292 34.16430839 59.07157916 37.88296473 60.35546875 41.6015625 C60.94016182 43.2977623 60.94016182 43.2977623 61.53666687 45.02822876 C61.9166835 46.12831268 62.29670013 47.22839661 62.68823242 48.36181641 C63.06023773 49.4387677 63.43224304 50.51571899 63.81552124 51.62530518 C64.66232592 54.03793382 65.52238075 56.44221285 66.40151978 58.84295654 C66.74902141 59.796848 66.74902141 59.796848 67.10354328 60.77000999 C67.75498893 62.55328726 68.41210068 64.33449167 69.0695343 66.11557007 C70 69 70 69 70 72 C59.44 72 48.88 72 38 72 C34 62 34 62 34 60 C26.41 60 18.82 60 11 60 C10.34 62.97 9.68 65.94 9 69 C8.505 70.485 8.505 70.485 8 72 C-2.89 72 -13.78 72 -25 72 C-21.62394418 59.62112867 -21.62394418 59.62112867 -19.85522461 54.47460938 C-19.46149155 53.32391968 -19.06775848 52.17322998 -18.66209412 50.9876709 C-18.2463765 49.785177 -17.83065887 48.58268311 -17.40234375 47.34375 C-16.96283485 46.06634711 -16.52351246 44.78888003 -16.08436584 43.51135254 C-15.17145643 40.85831791 -14.25596275 38.20619338 -13.33862305 35.5546875 C-12.16425271 32.15939702 -10.99708445 28.76167973 -9.83185482 25.3632431 C-8.9298517 22.73538117 -8.02381726 20.10892303 -7.11657906 17.48286438 C-6.47493518 15.62300094 -5.83691787 13.76188763 -5.19895935 11.90075684 C-4.80837845 10.77528442 -4.41779755 9.64981201 -4.01538086 8.49023438 C-3.67357285 7.49971069 -3.33176483 6.50918701 -2.979599 5.48864746 C-2 3 -2 3 0 0 Z M22 27 C20.35 32.28 18.7 37.56 17 43 C20.63 43 24.26 43 28 43 C26.35 37.72 24.7 32.44 23 27 C22.67 27 22.34 27 22 27 Z " fill="#0F1F4B" transform="translate(638,228)"/>
<path d="M0 0 C15.51 0 31.02 0 47 0 C52.69990746 16.52037291 52.69990746 16.52037291 55.12695312 23.57226562 C56.78208101 28.38125703 58.43790368 33.19000117 60.09790039 37.99731445 C61.43639797 41.87371606 62.77174807 45.75118875 64.1049366 49.62941933 C64.61374373 51.10774506 65.12367761 52.58568349 65.63476372 54.06322289 C66.35122487 56.13512404 67.06364256 58.20837461 67.77514648 60.28198242 C68.38470436 62.05069954 68.38470436 62.05069954 69.00657654 63.85514832 C70 67 70 67 71 72 C60.44 72 49.88 72 39 72 C35 63 35 63 35 60 C27.41 60 19.82 60 12 60 C11.67 61.98 11.34 63.96 11 66 C10.01 67.98 9.02 69.96 8 72 C-2.56 72 -13.12 72 -24 72 C-21.75002357 61.87510607 -21.75002357 61.87510607 -20.50708008 58.34838867 C-20.2295137 57.55272995 -19.95194733 56.75707123 -19.66596985 55.93730164 C-19.37014511 55.10592178 -19.07432037 54.27454193 -18.76953125 53.41796875 C-18.45602219 52.52370682 -18.14251312 51.62944489 -17.81950378 50.70808411 C-16.82197365 47.86617269 -15.81741641 45.02680687 -14.8125 42.1875 C-14.15772812 40.32633892 -13.50342787 38.46501184 -12.84960938 36.60351562 C-11.61595121 33.09295744 -10.37932949 29.58347275 -9.13989258 26.07495117 C-6.07992261 17.38798796 -3.04257487 8.69307105 0 0 Z M23 27 C21.35 32.28 19.7 37.56 18 43 C21.63 43 25.26 43 29 43 C27.35 37.72 25.7 32.44 24 27 C23.67 27 23.34 27 23 27 Z " fill="#0F1F4B" transform="translate(201,228)"/>
<path d="M0 0 C8.188125 -0.0825 16.37625 -0.165 24.8125 -0.25 C28.65612183 -0.30462402 28.65612183 -0.30462402 32.57739258 -0.36035156 C34.64143032 -0.37204986 36.70547739 -0.38223897 38.76953125 -0.390625 C39.81443726 -0.41108887 40.85934326 -0.43155273 41.93591309 -0.45263672 C50.38400914 -0.45658581 58.2908322 0.92217991 64.9375 6.4375 C65.618125 7.283125 66.29875 8.12875 67 9 C68.0828125 10.0209375 68.0828125 10.0209375 69.1875 11.0625 C72.74799817 16.83296255 73.63383504 24.0858267 72.5 30.75 C70.26042021 38.62419136 64.80659701 43.84041294 58 48 C54.94129752 48.98790391 52.01830119 49.22460646 48.8125 49.3125 C47.93207031 49.34988281 47.05164063 49.38726562 46.14453125 49.42578125 C43 49 43 49 34 45 C33.67 53.91 33.34 62.82 33 72 C22.11 72 11.22 72 0 72 C0 48.24 0 24.48 0 0 Z M33 16 C33 20.95 33 25.9 33 31 C36.465 30.505 36.465 30.505 40 30 C42.46324069 26.30513897 42.38991688 24.36706908 42 20 C41 18 41 18 39 17 C36.03 16.505 36.03 16.505 33 16 Z " fill="#0F204B" transform="translate(540,228)"/>
<path d="M0 0 C8.188125 -0.0825 16.37625 -0.165 24.8125 -0.25 C28.65612183 -0.30462402 28.65612183 -0.30462402 32.57739258 -0.36035156 C34.64143032 -0.37204986 36.70547739 -0.38223897 38.76953125 -0.390625 C39.81443726 -0.41108887 40.85934326 -0.43155273 41.93591309 -0.45263672 C50.88145211 -0.45681834 59.22006047 1.12371568 66 7.3125 C70.58038983 12.45174122 72.65169384 18.14997893 73 25 C72.44649471 32.33996143 70.2777112 37.80312902 65 43 C57.97470698 48.33869148 51.79528665 49.89006896 43 49 C39.81347339 47.96754661 36.93386654 46.60556653 34 45 C33.01 44.505 33.01 44.505 32 44 C32 53.24 32 62.48 32 72 C21.44 72 10.88 72 0 72 C0 48.24 0 24.48 0 0 Z M32 16 C32 20.95 32 25.9 32 31 C37.65431209 31.56468392 37.65431209 31.56468392 40.375 29.375 C42.4753727 26.30522452 42.53293835 24.65443439 42 21 C41.0785608 18.57695632 41.0785608 18.57695632 39 17 C36.69 16.67 34.38 16.34 32 16 Z " fill="#0F1F4B" transform="translate(104,228)"/>
<path d="M0 0 C19.8 0 39.6 0 60 0 C60 6.27 60 12.54 60 19 C50.76 19 41.52 19 32 19 C32 21.64 32 24.28 32 27 C38.6 27 45.2 27 52 27 C52.020625 29.949375 52.04125 32.89875 52.0625 35.9375 C52.071604 36.86812256 52.08070801 37.79874512 52.09008789 38.75756836 C52.09258545 39.48596924 52.09508301 40.21437012 52.09765625 40.96484375 C52.10289307 41.7137085 52.10812988 42.46257324 52.11352539 43.23413086 C52 45 52 45 51 46 C49.58429877 46.08651611 48.164405 46.10704904 46.74609375 46.09765625 C45.89208984 46.09443359 45.03808594 46.09121094 44.15820312 46.08789062 C43.26037109 46.07951172 42.36253906 46.07113281 41.4375 46.0625 C40.53580078 46.05798828 39.63410156 46.05347656 38.70507812 46.04882812 C36.46998686 46.03700225 34.23502563 46.0205222 32 46 C32 48.64 32 51.28 32 54 C41.24 54 50.48 54 60 54 C60 59.94 60 65.88 60 72 C40.2 72 20.4 72 0 72 C0 48.24 0 24.48 0 0 Z " fill="#0F204B" transform="translate(903,228)"/>
<path d="M0 0 C21.45 0 42.9 0 65 0 C65 10.89 65 21.78 65 33 C59.72 33 54.44 33 49 33 C49 45.87 49 58.74 49 72 C38.11 72 27.22 72 16 72 C16 59.13 16 46.26 16 33 C11.05 33 6.1 33 1 33 C0.67 32.67 0.34 32.34 0 32 C0 21.44 0 10.88 0 0 Z " fill="#0F204B" transform="translate(1051,228)"/>
<path d="M0 0 C21.45 0 42.9 0 65 0 C65 10.89 65 21.78 65 33 C59.72 33 54.44 33 49 33 C49 45.87 49 58.74 49 72 C38.11 72 27.22 72 16 72 C16 59.13 16 46.26 16 33 C11.05 33 6.1 33 1 33 C0.67 32.67 0.34 32.34 0 32 C0 21.44 0 10.88 0 0 Z " fill="#101F4B" transform="translate(435,228)"/>
<path d="M0 0 C4.55273627 -0.27382288 9.10060921 -0.47230307 13.65966797 -0.60424805 C15.20641581 -0.65927006 16.75259903 -0.73412755 18.29736328 -0.82983398 C31.13309771 -1.60461847 31.13309771 -1.60461847 35.7421875 2.35693359 C37.77409633 5.1540645 39.40405099 7.93831201 41 11 C41.97327251 12.35296652 42.96367318 13.69470138 44 15 C44.33902344 13.9171875 44.67804687 12.834375 45.02734375 11.71875 C47.09635744 6.74140575 49.22168375 2.76465621 54 0 C64.77324972 -2.06169648 76.13411701 -0.90102364 87 0 C85.63564187 3.78353194 83.90535818 6.81799908 81.5859375 10.09765625 C80.90660156 11.06509766 80.22726562 12.03253906 79.52734375 13.02929688 C78.81707031 14.03025391 78.10679687 15.03121094 77.375 16.0625 C75.27901628 19.03344878 73.18786651 22.00611837 71.12402344 24.99951172 C69.71726599 26.98675873 68.25116294 28.93339144 66.72753906 30.83251953 C60.12558768 39.48045719 59.8602699 46.17199493 60 56.75 C60 61.7825 60 66.815 60 72 C49.11 72 38.22 72 27 72 C27.0825 67.09125 27.165 62.1825 27.25 57.125 C27.06299179 43.49395133 24.8187119 34.73547734 15.82470703 24.24121094 C12.28255887 19.89053925 9.3190459 15.12718501 6.25 10.4375 C4.53185449 7.87668435 2.81344347 5.31604741 1.09472656 2.75561523 C0 1 0 1 0 0 Z " fill="#0F1F4C" transform="translate(708,228)"/>
<path d="M0 0 C5.94 0 11.88 0 18 0 C20.475 8.415 20.475 8.415 23 17 C24.65 11.39 26.3 5.78 28 0 C33.61 0 39.22 0 45 0 C45 12.87 45 25.74 45 39 C41.37 39 37.74 39 34 39 C33.67 32.73 33.34 26.46 33 20 C31.35 26.27 29.7 32.54 28 39 C24.7 39 21.4 39 18 39 C15.525 30.585 15.525 30.585 13 22 C12.67 27.61 12.34 33.22 12 39 C8.04 39 4.08 39 0 39 C0 26.13 0 13.26 0 0 Z " fill="#0F1F4B" transform="translate(1162,228)"/>
<path d="M0 0 C12.87 0 25.74 0 39 0 C39 3.3 39 6.6 39 10 C34.71 10 30.42 10 26 10 C26 19.57 26 29.14 26 39 C22.04 39 18.08 39 14 39 C14 29.43 14 19.86 14 10 C9.38 10 4.76 10 0 10 C0 6.7 0 3.4 0 0 Z " fill="#0F1F4B" transform="translate(1120,228)"/>
<path d="M0 0 C2.64 0 5.28 0 8 0 C8.66 2.97 9.32 5.94 10 9 C10.66 6.03 11.32 3.06 12 0 C14.97 0 17.94 0 21 0 C21 8.91 21 17.82 21 27 C16.71 27 12.42 27 8 27 C7.34 24.69 6.68 22.38 6 20 C5.67 22.31 5.34 24.62 5 27 C3.35 27 1.7 27 0 27 C0 18.09 0 9.18 0 0 Z " fill="#F7F7FB" transform="translate(334,52)"/>
<path d="M0 0 C1.98 0 3.96 0 6 0 C6.66 3.3 7.32 6.6 8 10 C8.33 6.7 8.66 3.4 9 0 C13.62 0 18.24 0 23 0 C23 8.91 23 17.82 23 27 C20.69 27 18.38 27 16 27 C15.67 20.73 15.34 14.46 15 8 C14.38339706 13.13008343 14.38339706 13.13008343 13.77368164 18.26098633 C13.39999197 21.30978917 12.97382819 24.07851544 12 27 C9.03 27 6.06 27 3 27 C2.49578271 23.25055444 1.99735969 19.50036087 1.5 15.75 C1.35691406 14.68652344 1.21382813 13.62304688 1.06640625 12.52734375 C0.93105469 11.50253906 0.79570312 10.47773437 0.65625 9.421875 C0.53056641 8.47924805 0.40488281 7.53662109 0.27539062 6.56542969 C0 4 0 4 0 0 Z " fill="#F3F4FA" transform="translate(338,92)"/>
<path d="M0 0 C2.31 0 4.62 0 7 0 C7.66 1.98 8.32 3.96 9 6 C9.33 4.02 9.66 2.04 10 0 C11.65 0 13.3 0 15 0 C15 8.91 15 17.82 15 27 C12.69 27 10.38 27 8 27 C7.67 25.35 7.34 23.7 7 22 C6.67 23.65 6.34 25.3 6 27 C4.02 27 2.04 27 0 27 C0 18.09 0 9.18 0 0 Z " fill="#F9F9FC" transform="translate(369,52)"/>
<path d="M0 0 C10 0 10 0 13 2 C13.29296875 4.05859375 13.29296875 4.05859375 13.1875 6.4375 C13.16042969 7.21996094 13.13335937 8.00242187 13.10546875 8.80859375 C13.07066406 9.53175781 13.03585937 10.25492188 13 11 C13 11.99 13 12.98 13 14 C13.33 14.33 13.66 14.66 14 15 C14.07244053 17.01964199 14.08377188 19.04167124 14.0625 21.0625 C14.05347656 22.16722656 14.04445313 23.27195312 14.03515625 24.41015625 C14.02355469 25.26480469 14.01195312 26.11945313 14 27 C12.02 27 10.04 27 8 27 C7.67 26.34 7.34 25.68 7 25 C6.67 25.66 6.34 26.32 6 27 C4.02 27 2.04 27 0 27 C0 18.09 0 9.18 0 0 Z " fill="#F4F5FA" transform="translate(323,92)"/>
<path d="M0 0 C2.97 0 5.94 0 9 0 C9.67221475 3.74902747 10.33680567 7.49936721 11 11.25 C11.19078125 12.31347656 11.3815625 13.37695312 11.578125 14.47265625 C11.75859375 15.49746094 11.9390625 16.52226563 12.125 17.578125 C12.29257812 18.52075195 12.46015625 19.46337891 12.6328125 20.43457031 C13 23 13 23 13 27 C10.69 27 8.38 27 6 27 C6 24.69 6 22.38 6 20 C5.01 20 4.02 20 3 20 C3 22.31 3 24.62 3 27 C0.69 27 -1.62 27 -4 27 C-3.27643663 17.88310149 -1.65707093 8.98361723 0 0 Z " fill="#F5F5FA" transform="translate(303,52)"/>
<path d="M0 0 C2.64 0 5.28 0 8 0 C10.87643044 8.62929131 12.19356684 17.9161847 12 27 C10.02 27 8.04 27 6 27 C5.67 24.69 5.34 22.38 5 20 C4.34 20 3.68 20 3 20 C2.67 22.31 2.34 24.62 2 27 C0.02 27 -1.96 27 -4 27 C-2.25603865 4.51207729 -2.25603865 4.51207729 0 0 Z " fill="#F7F7FB" transform="translate(196,108)"/>
<path d="M0 0 C2.64 0 5.28 0 8 0 C8.48150942 2.04111542 8.96010083 4.08291932 9.4375 6.125 C9.70433594 7.26195313 9.97117188 8.39890625 10.24609375 9.5703125 C11.557421 15.53583232 12.10487286 20.91737406 12 27 C10.02 27 8.04 27 6 27 C5.67 24.69 5.34 22.38 5 20 C4.34 20 3.68 20 3 20 C2.67 22.31 2.34 24.62 2 27 C0.02 27 -1.96 27 -4 27 C-3.50137275 17.76679887 -1.95827206 9.01544116 0 0 Z " fill="#F7F7FB" transform="translate(153,108)"/>
<path d="M0 0 C0.99 0.66 1.98 1.32 3 2 C3.40843923 4.71203652 3.13336867 7.2437142 3 10 C1.68 10.33 0.36 10.66 -1 11 C-0.34 11.45375 0.32 11.9075 1 12.375 C3.67843093 15.8904406 3.43998551 18.44976905 3.43359375 22.7578125 C3.21896484 23.86769531 3.21896484 23.86769531 3 25 C-1.06849409 27.71232939 -3.16476784 27.30699887 -8 27 C-10 25 -10 25 -10.1953125 22.8359375 C-10.17210937 22.02382812 -10.14890625 21.21171875 -10.125 20.375 C-10.10695313 19.55773437 -10.08890625 18.74046875 -10.0703125 17.8984375 C-10.04710937 17.27195312 -10.02390625 16.64546875 -10 16 C-8.68 15.67 -7.36 15.34 -6 15 C-6.66 14.525625 -7.32 14.05125 -8 13.5625 C-10.58209147 10.25419531 -10.4403713 8.10352511 -10.43359375 4.0234375 C-9.32541281 -1.14807354 -4.19060467 -0.29932891 0 0 Z " fill="#F2F3F9" transform="translate(305,92)"/>
<path d="M0 0 C0.99 0.66 1.98 1.32 3 2 C3.40843923 4.71203652 3.13336867 7.2437142 3 10 C1.02 10 -0.96 10 -3 10 C-3 11.98 -3 13.96 -3 16 C-1.02 16 0.96 16 3 16 C3.08096803 17.45742463 3.13917774 18.91612807 3.1875 20.375 C3.22230469 21.18710938 3.25710938 21.99921875 3.29296875 22.8359375 C3.19628906 23.55007812 3.09960938 24.26421875 3 25 C-0.68717438 27.45811625 -2.64345704 27.31118164 -7 27 C-7.99 26.34 -8.98 25.68 -10 25 C-10.38818359 22.80102539 -10.38818359 22.80102539 -10.3984375 20.09765625 C-10.40230469 19.12505859 -10.40617187 18.15246094 -10.41015625 17.15039062 C-10.39855469 16.13138672 -10.38695312 15.11238281 -10.375 14.0625 C-10.38660156 13.04736328 -10.39820313 12.03222656 -10.41015625 10.98632812 C-10.40628906 10.01244141 -10.40242188 9.03855469 -10.3984375 8.03515625 C-10.39505371 7.1419165 -10.39166992 6.24867676 -10.38818359 5.32836914 C-10 3 -10 3 -8.69384766 1.20483398 C-5.89362387 -0.78696544 -3.31483303 -0.29596723 0 0 Z " fill="#F1F2F9" transform="translate(372,92)"/>
<path d="M0 0 C10 0 10 0 13 2 C13.29296875 5.2578125 13.29296875 5.2578125 13.1875 9.125 C13.16042969 10.40632813 13.13335937 11.68765625 13.10546875 13.0078125 C13.07066406 13.99523437 13.03585938 14.98265625 13 16 C10.69 16.33 8.38 16.66 6 17 C6 20.3 6 23.6 6 27 C4.02 27 2.04 27 0 27 C0 18.09 0 9.18 0 0 Z " fill="#F5F5FB" transform="translate(128,108)"/>
<path d="M0 0 C10 0 10 0 13 2 C13.29296875 5.2578125 13.29296875 5.2578125 13.1875 9.125 C13.16042969 10.40632813 13.13335937 11.68765625 13.10546875 13.0078125 C13.07066406 13.99523437 13.03585937 14.98265625 13 16 C10.69 16.33 8.38 16.66 6 17 C6 20.3 6 23.6 6 27 C4.02 27 2.04 27 0 27 C0 18.09 0 9.18 0 0 Z " fill="#F5F5FB" transform="translate(285,52)"/>
<path d="M0 0 C2.31 0 4.62 0 7 0 C7.66 1.98 8.32 3.96 9 6 C9.66 4.02 10.32 2.04 11 0 C12.98 0 14.96 0 17 0 C16.52140759 1.60433809 16.04210442 3.20846416 15.5625 4.8125 C15.29566406 5.70582031 15.02882813 6.59914063 14.75390625 7.51953125 C14.19612127 9.35473055 13.60655425 11.18033726 13 13 C12.77439324 15.39254576 12.59151405 17.78928123 12.4375 20.1875 C12.35371094 21.45980469 12.26992188 22.73210937 12.18359375 24.04296875 C12.12300781 25.01878906 12.06242187 25.99460937 12 27 C9.69 27 7.38 27 5 27 C4.89042969 25.88882813 4.78085937 24.77765625 4.66796875 23.6328125 C3.81580704 15.48046551 2.85423479 7.7444904 0 0 Z " fill="#F5F6FB" transform="translate(316,52)"/>
<path d="M0 0 C3.96 0 7.92 0 12 0 C12 1.32 12 2.64 12 4 C10.02 4 8.04 4 6 4 C6 6.31 6 8.62 6 11 C7.65 11 9.3 11 11 11 C11 11.99 11 12.98 11 14 C9.35 14 7.7 14 6 14 C6 16.97 6 19.94 6 23 C7.98 23 9.96 23 12 23 C12 24.32 12 25.64 12 27 C8.04 27 4.08 27 0 27 C0 18.09 0 9.18 0 0 Z " fill="#FCFCFE" transform="translate(310,92)"/>
<path d="M0 0 C3.96 0 7.92 0 12 0 C12 1.32 12 2.64 12 4 C10.02 4 8.04 4 6 4 C6 6.31 6 8.62 6 11 C7.65 11 9.3 11 11 11 C11 11.99 11 12.98 11 14 C9.35 14 7.7 14 6 14 C6 16.97 6 19.94 6 23 C7.98 23 9.96 23 12 23 C12 24.32 12 25.64 12 27 C8.04 27 4.08 27 0 27 C0 18.09 0 9.18 0 0 Z " fill="#FEFEFE" transform="translate(356,52)"/>
<path d="M0 0 C3.63 0 7.26 0 11 0 C11 1.32 11 2.64 11 4 C9.35 4 7.7 4 6 4 C6 6.31 6 8.62 6 11 C7.65 11 9.3 11 11 11 C11 11.99 11 12.98 11 14 C9.35 14 7.7 14 6 14 C6 16.97 6 19.94 6 23 C7.98 23 9.96 23 12 23 C12 24.32 12 25.64 12 27 C8.04 27 4.08 27 0 27 C0 18.09 0 9.18 0 0 Z " fill="#FDFDFE" transform="translate(377,92)"/>
<path d="M0 0 C4.29 0 8.58 0 13 0 C13 1.32 13 2.64 13 4 C12.01 4 11.02 4 10 4 C10 11.59 10 19.18 10 27 C7.69 27 5.38 27 3 27 C3 19.41 3 11.82 3 4 C2.01 4 1.02 4 0 4 C0 2.68 0 1.36 0 0 Z " fill="#F3F3FA" transform="translate(216,108)"/>
<path d="M0 0 C4.29 0 8.58 0 13 0 C13 1.32 13 2.64 13 4 C12.01 4 11.02 4 10 4 C10 11.59 10 19.18 10 27 C7.69 27 5.38 27 3 27 C3 19.41 3 11.82 3 4 C2.01 4 1.02 4 0 4 C0 2.68 0 1.36 0 0 Z " fill="#F4F5FA" transform="translate(385,52)"/>
<path d="M0 0 C2.31 0 4.62 0 7 0 C7 7.59 7 15.18 7 23 C8.65 23 10.3 23 12 23 C12 24.32 12 25.64 12 27 C8.04 27 4.08 27 0 27 C0 18.09 0 9.18 0 0 Z " fill="#F4F4FA" transform="translate(173,108)"/>
<path d="M0 0 C1.98 0 3.96 0 6 0 C6 8.91 6 17.82 6 27 C4.02 27 2.04 27 0 27 C0 18.09 0 9.18 0 0 Z " fill="#FFFFFF" transform="translate(355,92)"/>
<path d="M0 0 C0.33 0 0.66 0 1 0 C1 8.91 1 17.82 1 27 C0.67 25.68 0.34 24.36 0 23 C-1.98 23 -3.96 23 -6 23 C-6 20.03 -6 17.06 -6 14 C-4.35 14 -2.7 14 -1 14 C-1 13.01 -1 12.02 -1 11 C-2.65 11 -4.3 11 -6 11 C-6 8.69 -6 6.38 -6 4 C-4.02 4 -2.04 4 0 4 C0 2.68 0 1.36 0 0 Z " fill="#414EB2" transform="translate(322,92)"/>
<path d="M0 0 C0.33 0 0.66 0 1 0 C1 8.91 1 17.82 1 27 C0.67 25.68 0.34 24.36 0 23 C-1.98 23 -3.96 23 -6 23 C-6 20.03 -6 17.06 -6 14 C-4.35 14 -2.7 14 -1 14 C-1 13.01 -1 12.02 -1 11 C-2.65 11 -4.3 11 -6 11 C-6 8.69 -6 6.38 -6 4 C-4.02 4 -2.04 4 0 4 C0 2.68 0 1.36 0 0 Z " fill="#5964BC" transform="translate(368,52)"/>
<path d="M0 0 C0.33 0 0.66 0 1 0 C1 8.91 1 17.82 1 27 C-1.10814567 22.78370866 -1.17700355 20.60209225 -1 16 C-2.98 16 -4.96 16 -7 16 C-7 14.02 -7 12.04 -7 10 C-5.02 10 -3.04 10 -1 10 C-0.67 6.7 -0.34 3.4 0 0 Z " fill="#4551B4" transform="translate(376,92)"/>
<path d="M0 0 C1.65 0 3.3 0 5 0 C5 2.31 5 4.62 5 7 C3.35 7 1.7 7 0 7 C0 4.69 0 2.38 0 0 Z " fill="#10209F" transform="translate(363,67)"/>
<path d="M0 0 C1.65 0 3.3 0 5 0 C5 2.97 5 5.94 5 9 C4.67 7.68 4.34 6.36 4 5 C2.68 5 1.36 5 0 5 C0 3.35 0 1.7 0 0 Z " fill="#10209F" transform="translate(317,97)"/>
<path d="M0 0 C1.65 0 3.3 0 5 0 C5 1.65 5 3.3 5 5 C3.35 5 1.7 5 0 5 C0 3.35 0 1.7 0 0 Z " fill="#10209F" transform="translate(363,57)"/>
<path d="M0 0 C0 2.64 0 5.28 0 8 C-4.875 3.25 -4.875 3.25 -6 1 C-1.125 0 -1.125 0 0 0 Z " fill="#1E2DA4" transform="translate(309,101)"/>
</svg>
